<svg width="33" height="31" viewBox="0 0 33 31" fill="none" xmlns="http://www.w3.org/2000/svg">
<path d="M16.5 31L14.1075 28.8038C11.33 26.2416 9.03375 24.0313 7.21875 22.173C5.40375 20.3147 3.96 18.6462 2.8875 17.1674C1.815 15.6898 1.0659 14.3315 0.6402 13.0926C0.2134 11.8538 0 10.5867 0 9.29155C0 6.64487 0.86625 4.4346 2.59875 2.66076C4.33125 0.886921 6.49 0 9.075 0C10.505 0 11.8663 0.309718 13.1588 0.929155C14.4513 1.54859 15.565 2.42143 16.5 3.54768C17.435 2.42143 18.5487 1.54859 19.8412 0.929155C21.1337 0.309718 22.495 0 23.925 0C26.51 0 28.6687 0.886921 30.4012 2.66076C32.1337 4.4346 33 6.64487 33 9.29155C33 10.5867 32.7872 11.8538 32.3615 13.0926C31.9347 14.3315 31.185 15.6898 30.1125 17.1674C29.04 18.6462 27.5963 20.3147 25.7812 22.173C23.9662 24.0313 21.67 26.2416 18.8925 28.8038L16.5 31Z" fill="#5F5F5F" fill-opacity="0.3"/>
</svg>
