<svg width="13" height="19" viewBox="0 0 13 19" fill="none" xmlns="http://www.w3.org/2000/svg">
<path d="M6.5 9.025C6.80486 9.025 7.10672 8.96357 7.38837 8.84421C7.67002 8.72486 7.92593 8.54992 8.1415 8.32938C8.35706 8.10884 8.52806 7.84702 8.64472 7.55887C8.76139 7.27072 8.82143 6.96189 8.82143 6.65C8.82143 6.33811 8.76139 6.02927 8.64472 5.74113C8.52806 5.45298 8.35706 5.19116 8.1415 4.97062C7.92593 4.75008 7.67002 4.57514 7.38837 4.45579C7.10672 4.33643 6.80486 4.275 6.5 4.275C5.88432 4.275 5.29386 4.52522 4.85851 4.97062C4.42315 5.41602 4.17857 6.02011 4.17857 6.65C4.17857 6.96189 4.23861 7.27072 4.35528 7.55887C4.47194 7.84702 4.64294 8.10884 4.85851 8.32938C5.29386 8.77478 5.88432 9.025 6.5 9.025ZM6.5 0C10.0843 0 13 2.9735 13 6.65C13 11.6375 6.5 19 6.5 19C6.5 19 0 11.6375 0 6.65C0 4.88631 0.684815 3.19486 1.9038 1.94774C3.12279 0.700623 4.77609 0 6.5 0Z" fill="#5F5F5F" fill-opacity="0.3"/>
</svg>
